<svg xmlns="http://www.w3.org/2000/svg" width="24" height="24" viewBox="0 0 24 24" fill="none">
  <g clip-path="url(#clip0_42_479)">
    <path d="M14.497 5.11667L15.9051 3.74417C16.0054 3.6465 16.0764 3.5227 16.1099 3.38679C16.1435 3.25088 16.1384 3.10828 16.0952 2.97513C16.0519 2.84198 15.9723 2.72359 15.8652 2.63336C15.7582 2.54314 15.628 2.48468 15.4894 2.46459L13.543 2.18192L12.673 0.418144C12.6039 0.301186 12.5055 0.20426 12.3875 0.136926C12.2695 0.0695931 12.1361 0.0341797 12.0002 0.0341797C11.8644 0.0341797 11.7309 0.0695931 11.6129 0.136926C11.4949 0.20426 11.3966 0.301186 11.3275 0.418144L10.4575 2.18184L8.51107 2.46452C8.37251 2.4846 8.24235 2.54306 8.1353 2.63329C8.02825 2.72352 7.94859 2.8419 7.90534 2.97505C7.86209 3.10821 7.85697 3.25081 7.89056 3.38672C7.92415 3.52263 7.99512 3.64642 8.09542 3.74409L9.50347 5.11659L9.17092 7.05527C9.14723 7.19323 9.16262 7.33506 9.21536 7.46472C9.26809 7.59439 9.35606 7.70671 9.46931 7.78898C9.58256 7.87124 9.71657 7.92018 9.85618 7.93024C9.9958 7.9403 10.1354 7.91109 10.2593 7.84592L12.0002 6.93047L13.7412 7.84599C13.8651 7.91117 14.0047 7.94038 14.1443 7.93032C14.2839 7.92025 14.418 7.87132 14.5312 7.78905C14.6445 7.70678 14.7324 7.59446 14.7852 7.4648C14.8379 7.33514 14.8533 7.1933 14.8296 7.05534L14.497 5.11667Z" fill="black"/>
    <path d="M23.9635 5.1921C23.9202 5.05898 23.8405 4.94062 23.7335 4.8504C23.6265 4.76018 23.4963 4.70171 23.3578 4.68158L21.4117 4.39883L20.5409 2.6352C20.4719 2.51818 20.3735 2.42119 20.2556 2.3538C20.1376 2.28642 20.0041 2.25098 19.8683 2.25098C19.7325 2.25098 19.599 2.28642 19.481 2.3538C19.3631 2.42119 19.2647 2.51818 19.1957 2.6352L18.3257 4.39883L16.3797 4.68158C16.2412 4.70166 16.1111 4.76009 16.0041 4.85027C15.897 4.94044 15.8174 5.05877 15.7741 5.19186C15.7308 5.32496 15.7256 5.4675 15.7591 5.60339C15.7926 5.73927 15.8635 5.86307 15.9637 5.96078L17.3721 7.33328L17.0396 9.27203C17.0158 9.40996 17.0312 9.55179 17.0839 9.68145C17.1366 9.81112 17.2245 9.92346 17.3377 10.0058C17.4509 10.0881 17.5849 10.137 17.7245 10.1472C17.864 10.1573 18.0037 10.1282 18.1276 10.0631L19.8682 9.14805L21.6092 10.0631C21.733 10.1282 21.8727 10.1574 22.0123 10.1474C22.1519 10.1373 22.2859 10.0884 22.3992 10.0061C22.5124 9.92384 22.6004 9.81152 22.6531 9.68186C22.7059 9.55219 22.7212 9.41036 22.6976 9.2724L22.3651 7.33365L23.7732 5.96115C23.8736 5.8635 23.9446 5.73972 23.9782 5.6038C24.0118 5.46789 24.0067 5.32528 23.9635 5.1921Z" fill="black"/>
    <path d="M7.6205 4.68151L5.67447 4.39876L4.80447 2.63514C4.74254 2.50964 4.64673 2.40397 4.52787 2.33008C4.40902 2.2562 4.27186 2.21704 4.13191 2.21704C3.99196 2.21704 3.8548 2.2562 3.73595 2.33008C3.61709 2.40397 3.52128 2.50964 3.45935 2.63514L2.58845 4.39876L0.642348 4.68151C0.503811 4.70161 0.373662 4.76007 0.266627 4.85029C0.159592 4.94051 0.0799441 5.05889 0.0366938 5.19203C-0.00655653 5.32516 -0.0116823 5.46775 0.0218964 5.60365C0.055475 5.73955 0.126418 5.86334 0.226698 5.96101L1.63505 7.33359L1.3025 9.27234C1.27881 9.4103 1.29421 9.55213 1.34694 9.68179C1.39967 9.81146 1.48764 9.92378 1.60089 10.006C1.71414 10.0883 1.84815 10.1372 1.98776 10.1473C2.12738 10.1574 2.26702 10.1282 2.3909 10.063L4.13187 9.14799L5.87247 10.063C5.99635 10.1282 6.13599 10.1574 6.27561 10.1473C6.41522 10.1372 6.54923 10.0883 6.66248 10.006C6.77573 9.92378 6.8637 9.81146 6.91643 9.68179C6.96917 9.55213 6.98456 9.4103 6.96087 9.27234L6.62832 7.33359L8.03675 5.96109C8.13695 5.86338 8.20781 5.73958 8.24132 5.6037C8.27482 5.46781 8.26964 5.32526 8.22636 5.19217C8.18307 5.05908 8.10341 4.94075 7.99638 4.85058C7.88936 4.7604 7.759 4.70159 7.6205 4.68151Z" fill="black"/>
    <path d="M19.5 11.25H4.5C3.90346 11.2507 3.33155 11.4879 2.90973 11.9097C2.48792 12.3315 2.25066 12.9035 2.25 13.5V19.5C2.25066 20.0965 2.48792 20.6685 2.90973 21.0903C3.33155 21.5121 3.90346 21.7493 4.5 21.75H9.43943L11.4698 23.7803C11.5394 23.8499 11.622 23.9052 11.713 23.9429C11.804 23.9806 11.9015 24 12 24C12.0985 24 12.196 23.9806 12.287 23.9429C12.378 23.9052 12.4606 23.8499 12.5303 23.7803L14.5606 21.75H19.5C20.0965 21.7493 20.6685 21.5121 21.0903 21.0903C21.5121 20.6685 21.7493 20.0965 21.75 19.5V13.5C21.7493 12.9035 21.5121 12.3315 21.0903 11.9097C20.6685 11.4879 20.0965 11.2507 19.5 11.25ZM18 18.75H6C5.80109 18.75 5.61032 18.671 5.46967 18.5303C5.32902 18.3897 5.25 18.1989 5.25 18C5.25 17.8011 5.32902 17.6103 5.46967 17.4697C5.61032 17.329 5.80109 17.25 6 17.25H18C18.1989 17.25 18.3897 17.329 18.5303 17.4697C18.671 17.6103 18.75 17.8011 18.75 18C18.75 18.1989 18.671 18.3897 18.5303 18.5303C18.3897 18.671 18.1989 18.75 18 18.75ZM18 15.75H6C5.80109 15.75 5.61032 15.671 5.46967 15.5303C5.32902 15.3897 5.25 15.1989 5.25 15C5.25 14.8011 5.32902 14.6103 5.46967 14.4697C5.61032 14.329 5.80109 14.25 6 14.25H18C18.1989 14.25 18.3897 14.329 18.5303 14.4697C18.671 14.6103 18.75 14.8011 18.75 15C18.75 15.1989 18.671 15.3897 18.5303 15.5303C18.3897 15.671 18.1989 15.75 18 15.75Z" fill="black"/>
  </g>
  <defs>
    <clipPath id="clip0_42_479">
      <rect width="24" height="24" fill="white"/>
    </clipPath>
  </defs>
</svg>